<svg id="svg" version="1.1" xmlns="http://www.w3.org/2000/svg" style="display: block;" viewBox="0 0 512 512"><path d="M0 0 C168.96 0 337.92 0 512 0 C512 168.96 512 337.92 512 512 C343.04 512 174.08 512 0 512 C0 343.04 0 174.08 0 0 Z " transform="translate(0,0)" style="fill: #010202;"/><path d="M0 0 C17.82 0 35.64 0 54 0 C54.33 6.93 54.66 13.86 55 21 C58.25888114 31.89688382 64.55550492 41.38027147 74.80099487 46.95066833 C82.08625059 50.42708111 89.24793879 51.46037138 97.2421875 51.43359375 C98.17298126 51.4388356 99.10377502 51.44407745 100.06277466 51.44947815 C102.01058969 51.45584998 103.95844345 51.45462485 105.90625 51.44604492 C108.88870644 51.43746055 111.86929099 51.46648197 114.8515625 51.49804688 C116.7526036 51.49965733 118.65364807 51.49908434 120.5546875 51.49609375 C121.44324432 51.50732773 122.33180115 51.51856171 123.24728394 51.53013611 C128.23272004 51.49951044 128.23272004 51.49951044 132.52783203 49.15649414 C134.15954077 46.97756026 134.15954077 46.97756026 135 44 C141.6 44 148.2 44 155 44 C155.99 45.98 156.98 47.96 158 50 C160.51275396 51.25637698 162.23722083 51.13427972 165.05036926 51.14717102 C166.65445145 51.15790398 166.65445145 51.15790398 168.29093933 51.16885376 C169.46957047 51.17154266 170.6482016 51.17423157 171.86254883 51.17700195 C173.7189801 51.18685875 173.7189801 51.18685875 175.61291504 51.19691467 C179.72762287 51.21669654 183.84229158 51.22832749 187.95703125 51.23828125 C189.37636522 51.24232973 190.795699 51.24644668 192.21503258 51.25063133 C198.89191829 51.26969746 205.56879294 51.28391853 212.24570066 51.2922433 C219.93064027 51.30198428 227.61528942 51.3282149 235.30012685 51.36874419 C241.25106656 51.39904047 247.20192377 51.41372538 253.15293902 51.41702431 C256.70087896 51.41936192 260.24850919 51.42815009 263.79636574 51.45348549 C267.76903857 51.48139225 271.74133988 51.47689407 275.71411133 51.4699707 C276.87047592 51.48278076 278.02684052 51.49559082 279.21824646 51.50878906 C292.08770008 51.42757984 303.3210632 47.93280529 312.9296875 39.2578125 C323.96115473 27.84758245 323.2338874 16.08836465 324 0 C341.49 0 358.98 0 377 0 C377.00410889 6.9714917 377.00821777 13.9429834 377.01245117 21.12573242 C377.02910574 43.42680026 377.07026193 65.72777814 377.12685562 88.02877779 C377.13562247 91.49224789 377.14417226 94.95571849 377.15258789 98.41918945 C377.15426695 99.10870991 377.15594602 99.79823037 377.15767596 100.50864539 C377.18435251 111.6761996 377.1934415 122.84370247 377.19604143 134.01128527 C377.19909989 145.46858704 377.22140664 156.925702 377.26052457 168.38294488 C377.28188748 174.81906551 377.29443814 181.25493511 377.28615379 187.69109154 C377.27863471 193.7461714 377.29434979 199.80074173 377.32806015 205.85572815 C377.33631921 208.08055431 377.33601323 210.30543089 377.32659721 212.53025246 C377.31502728 215.56379826 377.33401496 218.59565966 377.36076355 221.6290741 C377.35009029 222.51331895 377.33941703 223.39756379 377.32842034 224.30860394 C377.40139075 228.73190424 377.56289326 230.45280342 380.41495228 234.02318287 C382.81092077 235.98382542 382.81092077 235.98382542 385 237 C385 243.6 385 250.2 385 257 C383.35 257.66 381.7 258.32 380 259 C378.11790302 260.88209698 378.82563076 264.12390881 378.79467773 266.63110352 C378.78464501 267.33498923 378.77461229 268.03887495 378.76427555 268.76409054 C378.73278525 271.05232848 378.70807629 273.34058369 378.68359375 275.62890625 C378.6652 277.03772562 378.64636386 278.44653928 378.6270752 279.85534668 C378.55851193 285.09099687 378.49853329 290.32675662 378.4375 295.5625 C378.293125 307.256875 378.14875 318.95125 378 331 C354.24 331 330.48 331 306 331 C305.67 327.37 305.34 323.74 305 320 C300.54957465 304.804723 291.46014069 292.72094186 277.984375 284.53125 C272.86852812 281.90636521 267.55008743 280.42620429 262 279 C261.09121094 278.74734375 260.18242187 278.4946875 259.24609375 278.234375 C254.46181627 276.95493806 249.65937044 275.92150265 244.7890625 275.03125 C243.85771484 274.86044922 242.92636719 274.68964844 241.96679688 274.51367188 C240.10776084 274.17763993 238.24709929 273.85045027 236.38476562 273.53320312 C231.48090799 272.65451934 227.28809207 271.68845898 223 269 C220.42502611 265.13753917 220.10158678 262.43226898 220.16796875 257.83984375 C221.60410107 252.93811512 225.52629129 251.40350105 229.7578125 248.94921875 C241.98472983 241.59833712 249.65727121 228.26767508 254 215 C255.964166 207.08604781 257.28776192 199.11951416 258 191 C258.8353125 190.88785156 258.8353125 190.88785156 259.6875 190.7734375 C265.96483131 189.69187028 270.57247002 187.66739617 275 183 C278.95608791 177.17173527 280.09441973 170.92387991 279 164 C277.26005012 158.40870039 274.16423782 153.92993332 269 151 C267.11080618 150.24573546 265.20406667 149.53446839 263.28515625 148.859375 C262.29523682 148.50842773 261.30531738 148.15748047 260.28540039 147.79589844 C259.53121826 147.53325195 258.77703613 147.27060547 258 147 C257.99635437 146.38327423 257.99270874 145.76654846 257.98895264 145.13113403 C257.94692682 138.67363696 257.87744194 132.21683741 257.79248047 125.75976562 C257.76437023 123.35456338 257.74310658 120.94927047 257.72900391 118.54394531 C257.70743692 115.07309886 257.66071413 111.60333127 257.609375 108.1328125 C257.60753204 106.53688766 257.60753204 106.53688766 257.60565186 104.90872192 C257.4146008 95.02314716 254.84614232 87.04659333 248 79.7578125 C240.83102394 73.45695464 233.93505636 71.85457063 224.62646484 71.82299805 C223.78362946 71.81642685 222.94079407 71.80985565 222.07241821 71.80308533 C219.285257 71.78338919 216.49814965 71.77169624 213.7109375 71.76171875 C212.75622181 71.75764322 211.80150612 71.7535677 210.81785965 71.74936867 C205.7618761 71.7285209 200.70591956 71.71421512 195.64990234 71.70483398 C190.44487142 71.69378877 185.24027025 71.65940688 180.03539085 71.61966228 C176.01859784 71.5934297 172.00190607 71.58513613 167.98503494 71.58155251 C166.06742077 71.57670158 164.14981067 71.56513052 162.23228073 71.54651451 C149.32548681 71.42902669 138.6970005 71.63433354 128.7578125 80.9296875 C123.92442844 86.62233984 120.92085194 93.66973558 120.79467773 101.11401367 C120.77473251 102.15486618 120.75478729 103.19571869 120.73423767 104.26811218 C120.71752518 105.39006485 120.70081268 106.51201752 120.68359375 107.66796875 C120.6524221 109.39289299 120.6524221 109.39289299 120.62062073 111.15266418 C120.55516658 114.83088125 120.49625926 118.50917048 120.4375 122.1875 C120.39431087 124.67904396 120.35069645 127.17058059 120.30664062 129.66210938 C120.19948939 135.77466301 120.09771517 141.88728864 120 148 C119.38874268 148.12334717 118.77748535 148.24669434 118.14770508 148.3737793 C117.34228271 148.54304932 116.53686035 148.71231934 115.70703125 148.88671875 C114.91014893 149.05131592 114.1132666 149.21591309 113.29223633 149.38549805 C107.76595771 150.86698098 104.15251738 154.38381384 101 159 C98.31978673 163.69037323 98.2843035 168.75409692 99 174 C101.09307933 180.9193545 104.48875111 185.0682348 110.5234375 188.94140625 C113.64791861 190.27694944 116.63601208 190.6357726 120 191 C120.08636719 192.05316406 120.17273438 193.10632813 120.26171875 194.19140625 C122.14568761 214.4653726 128.77094756 231.99444426 144 246 C148.09541835 249.31780727 152.26869725 252.63434863 157 255 C157.13609913 256.72694675 157.23249228 258.45704722 157.3125 260.1875 C157.39951172 261.63189453 157.39951172 261.63189453 157.48828125 263.10546875 C156.80242424 267.17122912 155.15497159 268.39160599 152 271 C149.27942261 271.91911888 146.88320265 272.56893456 144.09375 273.09765625 C143.33259888 273.25866318 142.57144775 273.4196701 141.78723145 273.58555603 C139.36144318 274.09567009 136.9314787 274.58031312 134.5 275.0625 C131.32105273 275.7112188 128.14429971 276.37001331 124.96875 277.03515625 C124.19786545 277.19652069 123.4269809 277.35788513 122.63273621 277.5241394 C104.73860819 281.34846142 90.70355196 287.74290884 80.25 303.3125 C74.57149181 312.71185717 73.01193566 319.86870778 72 331 C48.57 331 25.14 331 1 331 C1 272.59 1 214.18 1 154 C29 154 29 154 36.4765625 158.77734375 C39.18359375 161.77148438 39.18359375 161.77148438 41.625 164.9375 C42.53299191 165.99530569 43.44839294 167.04679668 44.37109375 168.09179688 C46.01679803 169.98546709 47.63069765 171.90769244 49.19775391 173.86694336 C50.82424206 176.07653126 50.82424206 176.07653126 53 177 C59.39743632 177.5291425 59.39743632 177.5291425 65 175 C67.7610853 170.4165984 68.5091429 166.38398657 68.6875 161.125 C68.72166016 160.43664062 68.75582031 159.74828125 68.79101562 159.0390625 C68.87264091 157.35991387 68.9380157 155.67998832 69 154 C70.30195313 153.96261719 71.60390625 153.92523438 72.9453125 153.88671875 C74.67190257 153.82103326 76.39846381 153.75458682 78.125 153.6875 C78.9809375 153.66494141 79.836875 153.64238281 80.71875 153.61914062 C87.01916619 153.35258456 91.53014126 152.50466116 96.13220215 147.8377533 C98.48662691 144.26066564 98.50687706 142.08898052 98.51757812 137.82641602 C98.5245874 137.12331299 98.53159668 136.42020996 98.53881836 135.69580078 C98.55636212 133.38142904 98.54478847 131.06828951 98.53125 128.75390625 C98.53394629 127.13874579 98.53782985 125.52358692 98.54284668 123.90843201 C98.54873704 120.5266064 98.5401952 117.14520405 98.52148438 113.76342773 C98.49871293 109.43786894 98.51180866 105.11330394 98.53577423 100.78778172 C98.55026061 97.45306474 98.545613 94.11858154 98.53526306 90.78385735 C98.53260265 89.18952249 98.53584137 87.59516612 98.54518127 86.0008564 C98.55539232 83.76766272 98.53978446 81.53605472 98.51757812 79.30297852 C98.51439575 78.03454605 98.51121338 76.76611359 98.50793457 75.45924377 C97.89315642 71.27235115 96.74820424 69.20385754 94 66 C89.16905454 62.69664186 84.88681295 62.557515 79.24072266 62.56762695 C78.38153229 62.5574353 77.52234192 62.54724365 76.63711548 62.53674316 C73.81269757 62.50668107 70.9886192 62.49735761 68.1640625 62.48828125 C66.19964476 62.47142954 64.23523778 62.45327863 62.27084351 62.43388367 C57.11211506 62.38643111 51.95343022 62.35659099 46.79455566 62.33044434 C40.59859805 62.29536612 34.40280784 62.23836682 28.20698547 62.18505096 C18.80467832 62.10659268 9.40258947 62.05594483 0 62 C0 41.54 0 21.08 0 0 Z " transform="translate(67,91)" style="fill: #D7EBFD;"/><path d="M0 0 C0.8261776 -0.00523668 1.65235519 -0.01047336 2.50356847 -0.01586872 C5.27011299 -0.03086228 8.03647245 -0.03157374 10.80305481 -0.03224182 C12.78754488 -0.03986384 14.772032 -0.04829142 16.7565155 -0.0574646 C22.14722051 -0.0794148 27.53786878 -0.08820945 32.92861342 -0.09329104 C36.29818313 -0.09693461 39.66773798 -0.10317474 43.03730202 -0.11029243 C54.79760516 -0.1347907 66.55786418 -0.14783923 78.31819153 -0.15138245 C89.2716809 -0.15501591 100.22488975 -0.1848969 111.17829341 -0.22678703 C120.58824884 -0.26150972 129.99811142 -0.27693125 139.40813047 -0.27762848 C145.0255733 -0.27842075 150.64273052 -0.28713618 156.26010704 -0.31562614 C161.54698368 -0.34183977 166.83333862 -0.34399335 172.1202507 -0.3279705 C174.05597256 -0.32615854 175.99172465 -0.33282387 177.92738152 -0.34878922 C189.26766944 -0.43658843 198.13945419 -0.32729872 207.19685364 7.33665466 C207.97029114 8.29571716 207.97029114 8.29571716 208.75935364 9.27415466 C209.56372864 10.23321716 209.56372864 10.23321716 210.38435364 11.21165466 C213.54666247 15.95511792 214.01976961 20.00331005 214.06575012 25.65965271 C214.07407364 26.38559128 214.08239716 27.11152985 214.0909729 27.85946655 C214.11500153 30.25165735 214.1238377 32.64357484 214.13044739 35.03587341 C214.13942165 36.7087105 214.14854364 38.38154681 214.1578064 40.05438232 C214.17428134 43.56052088 214.18199333 47.06656416 214.18489075 50.57273865 C214.19026216 55.04367837 214.22789647 59.51370928 214.27363491 63.98439312 C214.30353171 67.44104189 214.31061708 70.89747556 214.3116169 74.35424232 C214.31579696 76.00113382 214.32814142 77.64802728 214.34913445 79.29479027 C214.4675949 89.39394525 214.25370943 98.34419292 207.00372314 106.16897583 C199.50304705 113.31443226 191.91735879 113.71000926 181.9868927 113.65892029 C180.0315413 113.667167 178.07618991 113.67541452 176.12083864 113.68369293 C174.03061175 113.68967322 171.94050459 113.68831668 169.85027313 113.68484497 C165.48854424 113.67801449 161.12707685 113.69393643 156.76539612 113.71324158 C146.72575147 113.75423656 136.68611466 113.76565294 126.64640045 113.77677155 C117.43094682 113.7872771 108.21561946 113.80400891 99.0002439 113.84486723 C94.66315291 113.86323871 90.32636274 113.86711114 85.98924208 113.85993195 C83.94389068 113.85877826 81.89869443 113.86440309 79.85336304 113.87310791 C77.35835972 113.88368882 74.86327932 113.88350759 72.36828613 113.87075806 C70.72389305 113.88306206 70.72389305 113.88306206 69.04627991 113.89561462 C68.09209797 113.89632713 67.13791603 113.89703964 66.15481949 113.89777374 C63.30910615 114.34489855 62.4551475 114.98407504 60.75935364 117.27415466 C60.26435364 118.75915466 60.26435364 118.75915466 59.75935364 120.27415466 C56.48898636 120.41925628 53.21944357 120.50814839 49.94685364 120.58665466 C49.01808411 120.62854919 48.08931458 120.67044373 47.13240051 120.71360779 C44.5821565 120.75964107 42.26492474 120.75748331 39.75935364 120.27415466 C37.68513489 117.81712341 37.68513489 117.81712341 36.75935364 115.27415466 C34.60836507 113.1231661 29.59832797 114.13692857 26.60700989 114.13352966 C24.69619086 114.11518279 22.78538327 114.09561078 20.87458801 114.07493591 C17.85966487 114.04610835 14.84546788 114.02415852 11.83039856 114.02366638 C-11.12037796 113.99712712 -11.12037796 113.99712712 -19.11735535 106.51927185 C-24.68635992 100.73858761 -26.61208286 94.54071915 -26.6446991 86.62986755 C-26.65156235 85.90042435 -26.6584256 85.17098114 -26.66549683 84.41943359 C-26.68367203 82.0283566 -26.67994086 79.63794159 -26.67424011 77.24681091 C-26.67880639 75.57203968 -26.68411329 73.89727033 -26.69012451 72.22250366 C-26.69903739 68.71986762 -26.69665339 65.21745981 -26.68669128 61.71482849 C-26.675204 57.24159756 -26.69541828 52.76915634 -26.72460842 48.29602909 C-26.74301552 44.83944757 -26.74266903 41.38305374 -26.7369709 37.92643547 C-26.73681824 36.27792185 -26.74281697 34.62939507 -26.75526237 32.98092842 C-26.86872295 15.49005493 -26.86872295 15.49005493 -20.05705261 7.81321716 C-18.94136902 6.86575623 -18.94136902 6.86575623 -17.80314636 5.89915466 C-17.06193542 5.25204529 -16.32072449 4.60493591 -15.55705261 3.93821716 C-10.56343908 0.35089951 -6.01386418 -0.0188997 0 0 Z " transform="translate(162.2406463623047,14.725845336914063)" style="fill: #F38895;"/><path d="M0 0 C0.72333025 0.0015486 1.4466605 0.0030972 2.19190985 0.00469273 C2.95497743 0.00242718 3.71804502 0.00016162 4.50423586 -0.00217259 C7.08073002 -0.00854142 9.65717196 -0.00768139 12.23367316 -0.00685817 C14.07291743 -0.00984786 15.91216106 -0.01324995 17.75140387 -0.01703578 C22.76165307 -0.0258992 27.77188522 -0.02821487 32.78214151 -0.02885157 C36.95735648 -0.02979869 41.13256743 -0.03347469 45.30778086 -0.03702366 C55.15401134 -0.04517708 65.00023266 -0.04760709 74.84646612 -0.04689723 C85.02058418 -0.04629616 95.19464926 -0.05685179 105.36875391 -0.0726409 C114.08890554 -0.08569393 122.80903981 -0.09108208 131.52920115 -0.09044182 C136.74393234 -0.09018618 141.95861649 -0.09307369 147.173338 -0.10361987 C152.07588124 -0.11326336 156.97833211 -0.11340598 161.88087851 -0.10610324 C163.68449226 -0.10505272 165.48811165 -0.10744778 167.29171568 -0.1134637 C169.74553677 -0.1211209 172.1990338 -0.11658091 174.65284735 -0.10883266 C175.73449664 -0.116548 175.73449664 -0.116548 176.83799744 -0.12441921 C181.75759918 -0.08986574 181.75759918 -0.08986574 183.98587042 2.1384055 C184.25711066 4.01438206 184.25711066 4.01438206 184.29446417 6.2790305 C184.31960089 7.10274144 184.34473761 7.92645238 184.37063605 8.77512425 C184.40547561 10.50161805 184.43679159 12.22818696 184.46438605 13.95481175 C184.627543 19.07236889 185.15241883 22.7034378 187.98587042 27.1384055 C193.26509719 32.01153791 196.93396857 33.38727987 204.10598761 33.4130637 C204.81548559 33.41817464 205.52498358 33.42328557 206.2559815 33.42855138 C208.59832235 33.44243458 210.94036835 33.44149097 213.28274542 33.43918675 C214.91696283 33.44307567 216.55117924 33.44741075 218.18539435 33.45217198 C221.61175821 33.4596324 225.03801906 33.45934516 228.46438605 33.45407933 C232.84004329 33.44829867 237.21527532 33.46518232 241.59086233 33.488424 C244.96764571 33.50321201 248.34432804 33.50402594 251.72113806 33.50091428 C253.33336482 33.5014254 254.94559754 33.50662368 256.55779272 33.5167262 C269.31025332 34.05642239 269.31025332 34.05642239 280.48605353 28.82805699 C285.74500011 23.0820304 286.29000807 16.71758945 286.54837042 9.3259055 C286.86346558 1.26081035 286.86346558 1.26081035 287.98587042 0.1384055 C290.39946105 0.03851774 292.78449361 0.00398375 295.19863898 0.01142186 C295.96241213 0.00986187 296.72618528 0.00830188 297.51310307 0.00669461 C300.09193533 0.00268166 302.67070951 0.00587539 305.2495423 0.00901097 C307.09040874 0.00765706 308.93127491 0.00587719 310.77214056 0.00370091 C315.7864581 -0.00087464 320.80075516 0.00091664 325.81507307 0.00408 C331.05035083 0.00660297 336.28562678 0.00426624 341.5209046 0.00269383 C350.31440554 0.00087195 359.1078981 0.00327893 367.90139776 0.00803441 C378.08347295 0.01347706 388.26552811 0.01171442 398.44760281 0.006208 C407.1728335 0.0016774 415.89805815 0.00102607 424.62328964 0.00364667 C429.84188579 0.00520974 435.06047251 0.00540241 440.27906805 0.00211018 C445.18405035 -0.00076777 450.08900671 0.00120576 454.99398619 0.00700444 C456.79963074 0.00833245 458.60527745 0.00793724 460.41092116 0.00574178 C462.86501138 0.00303185 465.31901711 0.00640944 467.77310187 0.01142186 C468.49711424 0.00919114 469.22112661 0.00696042 469.96707875 0.0046621 C474.87172056 0.02425564 474.87172056 0.02425564 475.98587042 1.1384055 C476.12448894 4.06296945 476.19911625 6.96211179 476.22415167 9.8884055 C476.23222342 10.77568333 476.24029516 11.66296117 476.24861151 12.5771262 C476.26247703 14.46358082 476.27318808 16.35006079 476.28103644 18.23655003 C476.29813424 21.09886655 476.34198282 23.95999317 476.38626105 26.82199925 C476.39639794 28.65662619 476.40491091 30.49126295 476.41165167 32.3259055 C476.42915976 33.17314183 476.44666785 34.02037816 476.46470648 34.89328831 C476.43936225 41.97047884 474.62181355 47.99937978 470.02102667 53.47824925 C469.37005011 54.00547581 468.71907355 54.53270238 468.04837042 55.0759055 C467.39997198 55.62117894 466.75157355 56.16645238 466.08352667 56.72824925 C461.32412995 59.92776921 457.02286133 60.42855872 451.39639574 60.39567441 C450.63663188 60.39918048 449.87686802 60.40268656 449.09408101 60.40629888 C446.53952091 60.41562802 443.98518802 60.41068567 441.43061835 60.40583104 C439.58409215 60.40956653 437.73756754 60.41416765 435.89104545 60.41956168 C430.80986397 60.43181952 425.72874819 60.43152794 420.64755529 60.42917293 C415.17026434 60.42876547 409.69299465 60.43979716 404.21571356 60.44928807 C393.48207267 60.46591424 382.74845374 60.47139834 372.01480105 60.47251283 C363.29168195 60.47346252 354.56857012 60.47756888 345.84545332 60.48391408 C325.14825963 60.49866325 304.45107077 60.51096334 283.75387102 60.50991696 C283.09188145 60.5098858 282.42989189 60.50985465 281.74784203 60.50982254 C278.39256578 60.50965633 275.03728954 60.50945825 271.6820133 60.50925313 C271.0156376 60.50921324 270.34926191 60.50917335 269.66269302 60.50913225 C268.31511873 60.50905138 266.96754444 60.50896778 265.61997015 60.50888147 C244.65361165 60.50765594 223.68731783 60.52266902 202.72097784 60.5500266 C179.16797962 60.58074663 155.61501238 60.5979338 132.06199062 60.59610015 C119.5901832 60.59543561 107.11844873 60.60095581 94.646658 60.62245625 C84.02848926 60.6406436 73.41042654 60.6450355 62.79224899 60.63143741 C57.37356092 60.62489546 51.95507639 60.62483488 46.53640753 60.64214391 C41.57631324 60.6578253 36.6165847 60.65506147 31.6564996 60.63757564 C29.86176597 60.63449486 28.06700538 60.63817853 26.27230354 60.64929579 C23.83204938 60.66341122 21.39307921 60.65283603 18.95286852 60.63618344 C18.25656711 60.6461198 17.5602657 60.65605616 16.84286425 60.66629362 C10.52227943 60.57514364 5.47759811 58.28285407 0.74368292 54.208718 C0.2048548 53.56676488 -0.33397333 52.92481175 -0.88912958 52.2634055 C-1.72057489 51.30821019 -1.72057489 51.30821019 -2.56881708 50.333718 C-6.27159314 44.7095014 -6.29866068 39.10980444 -6.24459833 32.61887425 C-6.24414011 31.71969777 -6.24368189 30.82052129 -6.24320978 29.89409703 C-6.24020075 28.00392136 -6.23235509 26.11374787 -6.21994013 24.22361058 C-6.20158068 21.31816744 -6.19943133 18.41304146 -6.19967645 15.50754613 C-6.19476468 13.66965273 -6.18893786 11.83176149 -6.18209833 9.99387425 C-6.18098551 9.12103291 -6.17987268 8.24819157 -6.17872614 7.3489005 C-6.12046397 0.03026148 -6.12046397 0.03026148 0 0 Z " transform="translate(21.01412957906723,436.8615944981575)" style="fill: #345E7E;"/><path d="M0 0 C1.41015625 1.6875 1.41015625 1.6875 3.0625 4 C10.8960464 14.28354445 20.97960055 21.29735317 33 26 C33.09990454 31.74335834 33.17195122 37.48619565 33.21972656 43.23022461 C33.23967151 45.17855659 33.26683757 47.12683006 33.30175781 49.07495117 C33.50040109 60.45312141 33.42514187 70.34242071 29 81 C28.46403198 82.34735229 28.46403198 82.34735229 27.91723633 83.72192383 C22.00013015 97.85780644 9.88765912 106.23462991 -3.6328125 112.15234375 C-15.50669455 116.19095254 -30.76126951 115.7204741 -42.10546875 110.55078125 C-58.74242354 101.63732504 -68.12186199 91.07937269 -74 73 C-75.24508795 68.26549012 -75.12718505 63.61985393 -75.09765625 58.76171875 C-75.0962413 57.88095169 -75.09482635 57.00018463 -75.09336853 56.09272766 C-75.08778937 53.29094997 -75.07524071 50.48925338 -75.0625 47.6875 C-75.05748231 45.78320428 -75.05291987 43.87890731 -75.04882812 41.97460938 C-75.03782677 37.31637519 -75.02057649 32.65820133 -75 28 C-74.06655762 27.87322876 -74.06655762 27.87322876 -73.11425781 27.74389648 C-47.83889758 24.20302721 -25.16656942 16.88413039 -4.4765625 1.6875 C-2 0 -2 0 0 0 Z " transform="translate(277,225)" style="fill: #FDCCBD;"/><path d="M0 0 C1.27532971 1.42043934 2.54238471 2.85399569 3.69140625 4.37841797 C10.96208591 13.38809228 24.87603278 19.302565 36 21 C53.06508011 22.38840508 68.59541379 19.18872604 82 8 C82.969375 7.278125 83.93875 6.55625 84.9375 5.8125 C87.11149275 4.11336439 87.11149275 4.11336439 88.25 1.6875 C90 0 90 0 91.81225586 -0.00537109 C109.37511981 2.32911738 126.56154508 5.15481506 139 19 C144.24421017 25.91177701 148 34.19849205 148 43 C147.34124878 43.00142502 146.68249756 43.00285004 146.00378418 43.00431824 C139.12482483 43.02406024 132.24674745 43.07843118 125.36816406 43.15258789 C122.80377538 43.17573278 120.23929212 43.19015531 117.67480469 43.19555664 C113.98052259 43.20487116 110.2877211 43.24592147 106.59375 43.29296875 C105.4538562 43.2890361 104.3139624 43.28510345 103.13952637 43.28105164 C96.14892413 43.40813632 91.39457099 44.40000632 86 49 C81.93226608 53.43973344 82.51887083 58.97216758 82.4375 64.6875 C82.40314119 66.58741481 82.36058045 68.48720455 82.30859375 70.38671875 C82.29626709 71.22420654 82.28394043 72.06169434 82.27124023 72.92456055 C82 75 82 75 80 77 C77.11547852 77.25396729 77.11547852 77.25396729 73.37890625 77.25878906 C72.69907684 77.2622937 72.01924744 77.26579834 71.31881714 77.26940918 C69.06660824 77.27822781 66.81471222 77.27237705 64.5625 77.265625 C63.00073181 77.26697162 61.43896402 77.26891212 59.87719727 77.27142334 C56.60201023 77.27437477 53.32693219 77.27007639 50.05175781 77.26074219 C45.84816309 77.24934757 41.64482375 77.25590695 37.4412384 77.26788712 C34.21567858 77.27510523 30.99017955 77.27281803 27.76461792 77.26763153 C26.21442637 77.2662949 24.66422935 77.26794324 23.11404419 77.27259064 C20.94957807 77.27765516 18.78552873 77.2699471 16.62109375 77.25878906 C14.77149048 77.25640228 14.77149048 77.25640228 12.88452148 77.25396729 C10 77 10 77 8 75 C7.74462891 72.94042969 7.74462891 72.94042969 7.7265625 70.421875 C7.7059375 69.50792969 7.6853125 68.59398437 7.6640625 67.65234375 C7.6382323 65.73316016 7.61987748 63.81385992 7.609375 61.89453125 C7.4646396 56.16140131 7.13812745 52.33518113 3 48 C-3.32712815 43.52536207 -9.62460249 43.399067 -17.15625 43.390625 C-18.29912476 43.37408875 -19.44199951 43.35755249 -20.61950684 43.34051514 C-24.24639338 43.29218395 -27.87286104 43.27069625 -31.5 43.25 C-33.9687709 43.22182803 -36.43752242 43.1918989 -38.90625 43.16015625 C-44.93742433 43.0864288 -50.96848158 43.03469916 -57 43 C-57.09136527 31.98968324 -53.48627764 23.93544657 -45.99609375 15.83203125 C-35.13121073 5.47249163 -15.14785518 -1.47513145 0 0 Z " transform="translate(211,379)" style="fill: #ACE19C;"/><path d="M0 0 C44.88 0 89.76 0 136 0 C136 20.46 136 40.92 136 62 C126.1 62.495 126.1 62.495 116 63 C110.50610579 66.36364022 110.50610579 66.36364022 107 71 C106.43015552 73.57873609 106.43015552 73.57873609 106.3125 76.25 C106.24675781 77.14203125 106.18101563 78.0340625 106.11328125 78.953125 C106.05720703 79.96632812 106.05720703 79.96632812 106 81 C100.78499436 76.69195186 96.08547854 72.08053648 91.4296875 67.171875 C86.6396388 62.89009513 81.93264745 62.6986346 75.72143555 62.68115234 C74.49139046 62.66608391 74.49139046 62.66608391 73.23649597 62.65071106 C70.5365771 62.61991681 67.83675723 62.60285441 65.13671875 62.5859375 C63.26055553 62.56722283 61.38440069 62.54764919 59.508255 62.5272522 C54.5780431 62.47595664 49.64780392 62.43631709 44.71746826 62.39910889 C38.79771627 62.35200654 32.87809938 62.29041969 26.95845795 62.23126221 C17.9723599 62.14308134 8.98628735 62.07329447 0 62 C0 41.54 0 21.08 0 0 Z " transform="translate(15,168)" style="fill: #ACE29C;"/><path d="M0 0 C8.48444098 -0.06791454 16.9686688 -0.12289572 25.45330906 -0.15543652 C29.39353641 -0.17105847 33.33356732 -0.19223273 37.27368164 -0.22631836 C41.07975622 -0.25903646 44.88564244 -0.27687909 48.69184685 -0.28463173 C50.1402476 -0.290153 51.58863864 -0.3009346 53.03695869 -0.31719017 C62.14508625 -0.4153045 69.53040089 -0.42729638 76.75 5.8125 C77.30171875 6.27269531 77.8534375 6.73289062 78.421875 7.20703125 C82.14524533 11.43729606 83.37516884 15.59455901 83.36914349 21.1418972 C83.37511663 22.35909836 83.38108978 23.57629952 83.38724393 24.83038557 C83.37868598 26.1726005 83.36984922 27.51481368 83.36076355 28.85702515 C83.36207223 30.28938615 83.36469981 31.72174645 83.36853105 33.15410292 C83.37523567 37.08558356 83.36324375 41.01681879 83.34819686 44.94826818 C83.33524041 49.189511 83.33962569 53.43074002 83.34190369 57.67199707 C83.34347667 65.01875461 83.33406486 72.36543221 83.31719017 79.71216965 C83.29280812 90.33430332 83.28499571 100.95639835 83.2812262 111.57855697 C83.27466047 128.81232161 83.254696 146.04604365 83.22631836 163.27978516 C83.19878094 180.0206684 83.1775458 196.76154008 83.16479492 213.50244141 C83.16400675 214.53436554 83.16321858 215.56628966 83.16240653 216.62948422 C83.15849141 221.806349 83.15470029 226.98321385 83.15097082 232.16007876 C83.11987113 275.10674897 83.06680899 318.05337162 83 361 C78.38 361 73.76 361 69 361 C68.9906543 358.93073242 68.98130859 356.86146484 68.97167969 354.72949219 C68.93791012 347.89208038 68.8823616 341.05497041 68.81609726 334.21780014 C68.77659032 330.07243009 68.74441785 325.92727348 68.72900391 321.78173828 C68.71385815 317.78089877 68.67945067 313.78064591 68.63169098 309.78006744 C68.6168555 308.2539098 68.60895774 306.72766842 68.60811615 305.2014389 C68.60575105 303.06301864 68.57871322 300.92622574 68.54589844 298.78808594 C68.53701599 297.5711908 68.52813354 296.35429565 68.51898193 295.1005249 C67.90000511 291.40260611 66.9490205 290.2435492 64 288 C63.01 287.67 62.02 287.34 61 287 C61 280.4 61 273.8 61 267 C60.34 266.67 59.68 266.34 59 266 C60.11375 265.731875 61.2275 265.46375 62.375 265.1875 C66.21840951 264.34190981 66.21840951 264.34190981 68 261 C68.30034459 259.08854026 68.30034459 259.08854026 68.25726891 256.98032761 C68.26694224 255.74994629 68.26694224 255.74994629 68.276811 254.49470878 C68.2737138 253.59384929 68.2706166 252.6929898 68.26742554 251.76483154 C68.27422221 250.32894287 68.27422221 250.32894287 68.28115618 248.86404634 C68.2938616 245.64206317 68.29217585 242.4202477 68.29052734 239.19824219 C68.29650883 236.89391359 68.30331349 234.58958699 68.31088257 232.28526306 C68.32859019 226.01449887 68.33324 219.74378921 68.33451414 213.47300243 C68.3364106 208.24188986 68.34376537 203.01079007 68.35085833 197.7796824 C68.36622686 186.14370285 68.37219463 174.50774994 68.37084763 162.87176105 C68.37072776 161.82414802 68.37072776 161.82414802 68.37060547 160.75537109 C68.37048283 159.7064784 68.37048283 159.7064784 68.37035771 158.63639596 C68.36954514 147.30867084 68.38867394 135.9810788 68.4168822 124.65339217 C68.44561798 113.02203416 68.45905588 101.39074714 68.45769465 89.75935292 C68.45718433 83.22932692 68.46290602 76.6994514 68.48405075 70.16945648 C68.50339757 64.02661385 68.5035817 57.88406579 68.48901749 51.74121284 C68.48692376 49.48656599 68.49166367 47.23190088 68.5037384 44.97728539 C68.51915692 41.89887724 68.50990447 38.82148896 68.49447632 35.74310303 C68.50476344 34.85116643 68.51505057 33.95922983 68.52564943 33.04026484 C68.4610205 27.20327044 67.37795195 23.79545597 64 19 C58.50201195 14.67159605 51.4018866 15.52274389 44.7265625 15.48828125 C42.80824112 15.46135445 42.80824112 15.46135445 40.85116577 15.43388367 C37.46785039 15.38898589 34.08489441 15.3566372 30.70141602 15.33044434 C27.24221797 15.30055003 23.78324651 15.25405045 20.32421875 15.20898438 C13.54956359 15.12407641 6.77494303 15.05725393 0 15 C0 10.05 0 5.1 0 0 Z " transform="translate(391,61)" style="fill: #345E7E;"/><path d="M0 0 C1.23043785 -0.00810448 1.23043785 -0.00810448 2.48573303 -0.01637268 C5.18422056 -0.02883071 7.88163504 -0.01238885 10.58007812 0.00561523 C12.4628505 0.00546018 14.3456232 0.0039701 16.22839355 0.00120544 C20.1691707 -0.00017724 24.10958332 0.01235764 28.05029297 0.03515625 C33.09422934 0.06354041 38.13756027 0.06080177 43.18154144 0.04806614 C47.0678217 0.04110147 50.95396274 0.04890727 54.84022522 0.06132317 C56.69970668 0.06582999 58.55920313 0.0661812 60.41868591 0.06225777 C63.02031947 0.05933781 65.62112722 0.07588967 68.22265625 0.09765625 C69.36837852 0.09090378 69.36837852 0.09090378 70.5372467 0.08401489 C75.30080024 0.15002295 78.56409788 0.98474739 82.61132812 3.50170898 C86.53395929 7.75122608 88.87044591 11.34227228 88.83837891 17.1784668 C88.83822784 18.09911926 88.83807678 19.01977173 88.83792114 19.96832275 C88.82759857 20.95387146 88.817276 21.93942017 88.80664062 22.95483398 C88.80381073 23.97019226 88.80098083 24.98555054 88.79806519 26.03167725 C88.78687814 29.27180815 88.76177604 32.51166175 88.73632812 35.75170898 C88.72629643 37.94962166 88.71717091 40.14753867 88.70898438 42.34545898 C88.68694364 47.73097012 88.65348063 53.11631974 88.61132812 58.50170898 C87.33242338 57.87933681 86.05545051 57.25299392 84.77929688 56.625 C84.06797607 56.27663589 83.35665527 55.92827179 82.6237793 55.5693512 C74.77642341 51.40618515 69.2755711 44.15962345 64.49804688 36.88452148 C62.41668881 34.25589121 60.61889345 32.95314478 57.61132812 31.50170898 C51.21901001 31.12569027 48.0042547 34.3623432 43.39257812 38.25170898 C26.45985922 51.95008832 2.43440692 61.64489762 -19.38867188 61.50170898 C-19.51591729 54.67004383 -19.6032095 47.83868661 -19.66333008 41.00610352 C-19.68840453 38.68404724 -19.7224728 36.36206934 -19.76586914 34.0402832 C-19.82682993 30.69389457 -19.85495337 27.34855346 -19.87695312 24.00170898 C-19.90275955 22.97118408 -19.92856598 21.94065918 -19.95515442 20.87890625 C-19.95768307 14.31439333 -19.04526412 9.36502819 -14.38867188 4.50170898 C-9.69309859 0.62747422 -5.91726859 -0.07489769 0 0 Z " transform="translate(221.388671875,176.498291015625)" style="fill: #DF9873;"/><path d="M0 0 C9.1077573 -0.59056063 16.46725136 -0.58578153 24 5 C29.14563099 9.75276158 32.69978834 14.255784 33.27415466 21.41923523 C33.28479446 22.72810196 33.29543427 24.03696869 33.30639648 25.38549805 C33.31472 26.11143661 33.32304352 26.83737518 33.33161926 27.58531189 C33.35564789 29.97750269 33.36448406 32.36942018 33.37109375 34.76171875 C33.38006801 36.43455584 33.38919 38.10739214 33.39845276 39.78022766 C33.4149277 43.28636622 33.4226397 46.79240949 33.42553711 50.29858398 C33.43090852 54.76952371 33.46854283 59.23955462 33.51428127 63.71023846 C33.54417807 67.16688723 33.55126344 70.6233209 33.55226326 74.08008766 C33.55644332 75.72697915 33.56878778 77.37387261 33.58978081 79.0206356 C33.70824126 89.11979059 33.49435579 98.07003826 26.24436951 105.89482117 C18.77307868 113.01228396 11.25579519 113.43091422 1.36352539 113.34057617 C0.1042926 113.34101425 -1.15494019 113.34145233 -2.45233154 113.34190369 C-5.88788807 113.34276087 -9.32312737 113.32518052 -12.75861049 113.30418181 C-16.35537891 113.28536847 -19.95215542 113.28366092 -23.54896545 113.28010559 C-30.35220943 113.27079875 -37.15530797 113.24620355 -43.95848805 113.21605712 C-51.7069709 113.18247059 -59.45546087 113.16601644 -67.20399845 113.15097082 C-83.13608305 113.11965266 -99.06802274 113.06691884 -115 113 C-115 112.67 -115 112.34 -115 112 C-114.11154672 112.00471361 -114.11154672 112.00471361 -113.20514488 112.00952244 C-98.78239904 112.08294411 -84.36020316 112.10661804 -69.93730736 112.07515812 C-62.96231371 112.06113927 -55.9880816 112.06385849 -49.01318359 112.10620117 C-42.28243562 112.14701442 -35.55322769 112.14089177 -28.82237625 112.10607719 C-26.25393903 112.100476 -23.68541778 112.1106344 -21.11710739 112.13676643 C-17.51977542 112.17068282 -13.92681755 112.14868725 -10.32958984 112.11352539 C-9.26647583 112.13653214 -8.20336182 112.15953888 -7.10803223 112.1832428 C-1.47235082 112.10318098 -1.47235082 112.10318098 2.99598312 108.99239922 C4.53578886 106.71762882 5.82011117 104.47780078 7 102 C7.33 101.34 7.66 100.68 8 100 C-1.57 99.67 -11.14 99.34 -21 99 C-21 98.67 -21 98.34 -21 98 C-20.01604248 97.98018066 -19.03208496 97.96036133 -18.01831055 97.93994141 C-14.36717161 97.86386013 -10.71642991 97.775147 -7.06567383 97.68261719 C-5.48567549 97.64433779 -3.90559031 97.60948303 -2.32543945 97.578125 C-0.05388355 97.53245124 2.21707509 97.47446216 4.48828125 97.4140625 C5.19463211 97.40251129 5.90098297 97.39096008 6.6287384 97.37905884 C10.27741393 97.26928952 11.88213546 97.07857636 15 95 C15.36416047 92.56306689 15.36416047 92.56306689 15.1875 89.875 C15.16042969 88.96492188 15.13335937 88.05484375 15.10546875 87.1171875 C15.07066406 86.41851562 15.03585937 85.71984375 15 85 C11.82946805 84.08341617 8.87176138 83.81167961 5.578125 83.68359375 C4.55332031 83.64169922 3.52851563 83.59980469 2.47265625 83.55664062 C1.40917969 83.51732422 0.34570312 83.47800781 -0.75 83.4375 C-1.82894531 83.39431641 -2.90789062 83.35113281 -4.01953125 83.30664062 C-6.67954211 83.20071099 -9.33975456 83.09986544 -12 83 C-12 76.73 -12 70.46 -12 64 C-10.44667969 63.96261719 -8.89335937 63.92523438 -7.29296875 63.88671875 C-5.257788 63.82106776 -3.22263283 63.75462012 -1.1875 63.6875 C-0.16333984 63.66494141 0.86082031 63.64238281 1.91601562 63.61914062 C2.89892578 63.58369141 3.88183594 63.54824219 4.89453125 63.51171875 C5.80050049 63.48553467 6.70646973 63.45935059 7.63989258 63.43237305 C10.43699745 62.91994181 11.3556414 62.29558973 13 60 C13.58333333 56.5 13.58333333 56.5 13 53 C10.13929304 50.18773131 7.96195745 49.60859626 4.015625 49.48828125 C2.61376953 49.43510742 2.61376953 49.43510742 1.18359375 49.38085938 C0.21550781 49.35830078 -0.75257813 49.33574219 -1.75 49.3125 C-2.73355469 49.27833984 -3.71710938 49.24417969 -4.73046875 49.20898438 C-7.15324858 49.12665691 -9.5766058 49.06164775 -12 49 C-12 42.73 -12 36.46 -12 30 C-9.45345703 29.92652344 -9.45345703 29.92652344 -6.85546875 29.8515625 C-4.63279577 29.77653556 -2.41014034 29.7009877 -0.1875 29.625 C0.93205078 29.5940625 2.05160156 29.563125 3.20507812 29.53125 C4.81479492 29.47324219 4.81479492 29.47324219 6.45703125 29.4140625 C7.9416687 29.36693115 7.9416687 29.36693115 9.45629883 29.31884766 C12.24075094 29.16226567 12.24075094 29.16226567 15 27 C15.36416047 24.56306689 15.36416047 24.56306689 15.1875 21.875 C15.16042969 20.96492188 15.13335937 20.05484375 15.10546875 19.1171875 C15.07066406 18.41851562 15.03585937 17.71984375 15 17 C14.13375 16.896875 13.2675 16.79375 12.375 16.6875 C7.75159029 14.37579515 6.61493722 11.26524358 4.39453125 6.7265625 C3.12343862 4.24134497 1.74333111 2.17016438 0 0 Z " transform="translate(343,15)" style="fill: #EA707F;"/><path d="M0 0 C1.41015625 1.6875 1.41015625 1.6875 3.0625 4 C10.8960464 14.28354445 20.97960055 21.29735317 33 26 C33.09990454 31.74335834 33.17195122 37.48619565 33.21972656 43.23022461 C33.23967151 45.17855659 33.26683757 47.12683006 33.30175781 49.07495117 C33.50040109 60.45312141 33.42514187 70.34242071 29 81 C28.64268799 81.89823486 28.28537598 82.79646973 27.91723633 83.72192383 C22.47176312 96.73108197 11.46649029 105.30225701 -1 111 C-8.9434673 114.17954254 -16.52026347 114.36399505 -25 114 C-22.86076254 111.86076254 -21.24615883 111.14980746 -18.5 109.9375 C-5.8974449 103.72728138 2.17143286 92.94615827 7 80 C9.18659412 73.09496594 9.58239087 66.20925239 10 59 C8.88625 58.9071875 8.88625 58.9071875 7.75 58.8125 C3.98198681 57.69922338 2.96531158 56.38693152 1 53 C0.41945718 50.14729518 0.39487523 47.40349877 0.4375 44.5 C0.41365234 43.75363281 0.38980469 43.00726563 0.36523438 42.23828125 C0.37630595 38.06798768 0.69382885 36.40613472 3.28515625 32.96875 C6 31 6 31 10 31 C9.77042223 29.5590974 9.51543646 28.12222985 9.25 26.6875 C9.11078125 25.88699219 8.9715625 25.08648437 8.828125 24.26171875 C7.11563388 19.58467933 2.37395208 18.10048338 -1.875 16.0625 C-6.16561342 13.95915528 -10.12976376 11.79517062 -14 9 C-11.15820812 6.67489755 -8.27173401 4.42299401 -5.3125 2.25 C-4.73113281 1.82203125 -4.14976562 1.3940625 -3.55078125 0.953125 C-2 0 -2 0 0 0 Z " transform="translate(277,225)" style="fill: #FBAD9C;"/><path d="M0 0 C4.62 0 9.24 0 14 0 C14 58.41 14 116.82 14 177 C9.38 177 4.76 177 0 177 C0 118.59 0 60.18 0 0 Z " transform="translate(38,245)" style="fill: #3F6E90;"/><path d="M0 0 C0.71590805 0.00233139 1.4318161 0.00466278 2.16941833 0.00706482 C3.6764627 0.01677138 5.18347226 0.03848771 6.69018555 0.0715332 C8.99257607 0.12101815 11.29282826 0.13302095 13.59570312 0.13867188 C15.06382474 0.15275695 16.53192787 0.16896105 18 0.1875 C18.6855043 0.1928627 19.37100861 0.1982254 20.07728577 0.20375061 C23.65499143 0.29253402 26.4432358 0.49664029 29.43359375 2.55859375 C30.9881968 5.66779984 31.16080068 9.18942403 30.43359375 12.55859375 C27.29409541 15.56851968 25.06959017 15.91980646 20.79296875 15.8515625 C19.18808594 15.83706055 19.18808594 15.83706055 17.55078125 15.82226562 C16.43960937 15.79712891 15.3284375 15.77199219 14.18359375 15.74609375 C12.49363281 15.72579102 12.49363281 15.72579102 10.76953125 15.70507812 C7.99068094 15.66975376 5.21207668 15.61594776 2.43359375 15.55859375 C2.43359375 21.82859375 2.43359375 28.09859375 2.43359375 34.55859375 C3.89152344 34.5121875 5.34945313 34.46578125 6.8515625 34.41796875 C8.77471907 34.38044374 10.69789783 34.34404437 12.62109375 34.30859375 C13.58080078 34.27507813 14.54050781 34.2415625 15.52929688 34.20703125 C19.95437006 34.14578456 22.671584 34.12261802 26.57421875 36.35546875 C28.43359375 38.55859375 28.43359375 38.55859375 28.99609375 42.05859375 C28.43359375 45.55859375 28.43359375 45.55859375 27.1015625 47.76171875 C22.77559386 50.67525546 18.26305604 49.97619022 13.18359375 49.80859375 C12.15234375 49.79054687 11.12109375 49.7725 10.05859375 49.75390625 C7.51652925 49.70683098 4.97494308 49.63508921 2.43359375 49.55859375 C2.43359375 55.82859375 2.43359375 62.09859375 2.43359375 68.55859375 C4.0475 68.53539063 5.66140625 68.5121875 7.32421875 68.48828125 C9.44400579 68.46952207 11.56379784 68.45132203 13.68359375 68.43359375 C14.74707031 68.41683594 15.81054688 68.40007812 16.90625 68.3828125 C17.93105469 68.37636719 18.95585937 68.36992188 20.01171875 68.36328125 C20.9543457 68.35280762 21.89697266 68.34233398 22.86816406 68.33154297 C25.56865982 68.57054764 27.1665224 69.09495194 29.43359375 70.55859375 C30.9881968 73.66779984 31.16080068 77.18942403 30.43359375 80.55859375 C27.50831917 83.60130806 24.87840392 83.93110901 20.7467041 84.0267334 C19.64812073 84.02703552 19.64812073 84.02703552 18.52734375 84.02734375 C17.76562866 84.03495728 17.00391357 84.0425708 16.21911621 84.05041504 C14.61209383 84.06119821 13.00500146 84.06407637 11.39794922 84.05957031 C8.94119528 84.05859676 6.48755405 84.10025579 4.03125 84.14453125 C2.46745442 84.14973776 0.903648 84.15242645 -0.66015625 84.15234375 C-1.39254517 84.16873901 -2.12493408 84.18513428 -2.8795166 84.20202637 C-6.41291788 84.15420216 -8.16205529 83.94398641 -10.75828552 81.46948242 C-13.00727453 77.84884109 -13.07913741 75.61575634 -13.09985352 71.36914062 C-13.11277687 70.31207664 -13.11277687 70.31207664 -13.1259613 69.23365784 C-13.14858223 66.91450814 -13.14189092 64.59657054 -13.1328125 62.27734375 C-13.13804955 60.6597864 -13.14432633 59.04223211 -13.15159607 57.42468262 C-13.16199281 54.03867191 -13.1574491 50.65308166 -13.14282227 47.26708984 C-13.12562765 42.9323171 -13.14914043 38.59886904 -13.18431187 34.26424408 C-13.20629258 30.92526501 -13.20484302 27.58660268 -13.19654655 24.24757385 C-13.19572754 22.64960781 -13.2025816 21.0516184 -13.21731758 19.45372009 C-13.23477949 17.21767167 -13.22021264 14.9840005 -13.19750977 12.74804688 C-13.196548 11.4773938 -13.19558624 10.20674072 -13.19459534 8.89758301 C-11.79926553 1.48104024 -6.84362066 -0.19557524 0 0 Z " transform="translate(328.56640625,29.44140625)" style="fill: #020101;"/><path d="M0 0 C0.96647964 -0.00021904 0.96647964 -0.00021904 1.95248413 -0.0004425 C4.07350072 0.00025189 6.19442852 0.00802203 8.31542969 0.01586914 C9.78944857 0.017735 11.26346807 0.01915811 12.73748779 0.02015686 C16.6106946 0.02396878 20.48386371 0.03378774 24.35705566 0.04486084 C28.31192515 0.05510346 32.26680075 0.05966059 36.22167969 0.06469727 C43.97690717 0.07541122 51.73209584 0.09299727 59.48730469 0.11352539 C59.48730469 5.06352539 59.48730469 10.01352539 59.48730469 15.11352539 C56.8535083 15.12754395 56.8535083 15.12754395 54.16650391 15.1418457 C48.3508836 15.17743436 42.53558435 15.23127135 36.72024345 15.29742813 C33.19596428 15.33685843 29.67193327 15.36906821 26.14746094 15.38452148 C22.09106717 15.40262865 18.03559981 15.45259861 13.97949219 15.50415039 C12.71990692 15.50537903 11.46032166 15.50660767 10.16256714 15.50787354 C1.48601254 15.57273806 1.48601254 15.57273806 -5.51269531 20.11352539 C-7.79946271 23.61640449 -7.78570919 26.68477465 -7.83154297 30.80981445 C-7.84158859 31.47364136 -7.85163422 32.13746826 -7.86198425 32.82141113 C-7.89278165 35.00731572 -7.90984141 37.19309802 -7.92675781 39.37915039 C-7.94547227 40.89802093 -7.9650459 42.41688111 -7.98544312 43.93572998 C-8.03674111 47.92722458 -8.0763792 51.91875288 -8.11358643 55.91040039 C-8.15364077 59.98600586 -8.20472657 64.06147143 -8.25488281 68.13696289 C-8.35161454 76.12906182 -8.43500812 84.12121862 -8.51269531 92.11352539 C-13.46269531 92.11352539 -18.41269531 92.11352539 -23.51269531 92.11352539 C-23.62587566 82.21216077 -23.71751433 72.31122918 -23.77175617 62.40936279 C-23.79779599 57.81099317 -23.83309052 53.21309092 -23.88989258 48.61499023 C-23.94441397 44.17346637 -23.97415805 39.73239067 -23.98708153 35.29055786 C-23.99628546 33.60011749 -24.01425877 31.90970031 -24.0413456 30.2194519 C-24.29324413 13.84212328 -24.29324413 13.84212328 -18.51269531 7.11352539 C-16.41503906 5.05493164 -16.41503906 5.05493164 -14.45019531 3.67602539 C-13.79921875 3.20293945 -13.14824219 2.72985352 -12.47753906 2.24243164 C-8.44099879 -0.07677341 -4.59090398 -0.00876127 0 0 Z " transform="translate(61.5126953125,60.886474609375)" style="fill: #3D6B8C;"/><path d="M0 0 C3.22611658 2.63710825 4.68448937 5.04228693 6.01464844 8.95214844 C6.3546991 9.93286316 6.69474976 10.91357788 7.04510498 11.92401123 C7.39631409 12.97518127 7.74752319 14.02635132 8.109375 15.109375 C8.48104797 16.19132141 8.85272095 17.27326782 9.23565674 18.38800049 C10.41811679 21.83835252 11.5842236 25.29397974 12.75 28.75 C13.54970905 31.09281418 14.35047792 33.43526688 15.15234375 35.77734375 C17.11387141 41.51409424 19.06200812 47.25525884 21 53 C21.60473145 51.21553467 21.60473145 51.21553467 22.22167969 49.39501953 C23.7322916 44.93982389 25.24648945 40.48585371 26.76171875 36.03222656 C27.41437545 34.1123066 28.06608681 32.19206498 28.71679688 30.27148438 C29.65760954 27.49522124 30.60192783 24.72017072 31.546875 21.9453125 C31.83246277 21.1001004 32.11805054 20.25488831 32.41229248 19.38406372 C33.88622117 15.06687665 35.41643103 10.77108947 37.02832031 6.50341797 C37.33360657 5.688237 37.63889282 4.87305603 37.95343018 4.03317261 C39 2 39 2 42 0 C46.05480401 -0.61703539 47.54369977 -0.32038101 50.9375 2.0625 C53 5 53 5 52.75726318 8.26022339 C52.02522517 11.87542441 51.09268457 15.26942965 49.94628906 18.77392578 C49.73959595 19.41065216 49.53290283 20.04737854 49.31994629 20.70339966 C48.64160793 22.78620804 47.95433819 24.86591344 47.265625 26.9453125 C46.78570181 28.40303797 46.30586518 29.86079194 45.82611084 31.318573 C44.82178322 34.36442484 43.81225574 37.40849965 42.79980469 40.45166016 C41.50669685 44.34177315 40.23312613 48.23798527 38.96417618 52.13603401 C37.98088066 55.14552126 36.98404256 58.15039482 35.98345184 61.15417099 C35.50810559 62.58859388 35.03767987 64.02465752 34.57239532 65.46237564 C33.91954502 67.4749073 33.24783375 69.48019315 32.57128906 71.48486328 C32.19458069 72.6251297 31.81787231 73.76539612 31.42974854 74.94021606 C29.78290838 78.4645946 27.98216996 80.51922253 25 83 C21.05839262 83.63347261 18.95577193 83.55992647 15.49707031 81.53369141 C12.06389132 78.0501627 11.01214328 74.49773385 9.546875 69.8984375 C9.24489197 68.99688431 8.94290894 68.09533112 8.6317749 67.16645813 C7.65554712 64.24089468 6.7023838 61.30840299 5.75 58.375 C5.08680256 56.36774389 4.42208442 54.36098959 3.75585938 52.35473633 C2.76204502 49.3611258 1.76947638 46.36717171 0.78344727 43.37098694 C-1.0739953 37.73517383 -2.98957496 32.12815197 -5.015625 26.55078125 C-5.44327148 25.36500488 -5.87091797 24.17922852 -6.31152344 22.95751953 C-7.07975934 20.84376611 -7.85836417 18.73373979 -8.64941406 16.62841797 C-10.5628492 11.29919488 -11.68874294 7.51025176 -10 2 C-6.2794164 -0.48038907 -4.40203429 -0.46337203 0 0 Z " transform="translate(248,30)" style="fill: #040202;"/><path d="M0 0 C44.88 0 89.76 0 136 0 C136 20.46 136 40.92 136 62 C126.1 62.495 126.1 62.495 116 63 C110.50610579 66.36364022 110.50610579 66.36364022 107 71 C106.43015552 73.57873609 106.43015552 73.57873609 106.3125 76.25 C106.24675781 77.14203125 106.18101563 78.0340625 106.11328125 78.953125 C106.05720703 79.96632812 106.05720703 79.96632812 106 81 C101.47384007 77.32167983 97.60575001 73.58913637 94 69 C94.88751953 68.63648438 94.88751953 68.63648438 95.79296875 68.265625 C105.77828552 64.03041723 107.71304475 61.5739105 113 51 C113.33 34.5 113.66 18 114 1 C76.38 1 38.76 1 0 1 C0 0.67 0 0.34 0 0 Z " transform="translate(15,168)" style="fill: #88D19F;"/><path d="M0 0 C4.08418383 0.65638669 5.02373695 1.33255899 7.5 4.5625 C7.98101807 7.47320557 7.98101807 7.47320557 7.95410156 10.89160156 C7.95379944 12.17262756 7.95349731 13.45365356 7.95318604 14.77349854 C7.93276095 16.16671371 7.91189699 17.5599225 7.890625 18.953125 C7.88316131 20.38229582 7.87746898 21.8114769 7.87347412 23.24066162 C7.8582275 26.99577262 7.81895516 30.75026125 7.7746582 34.50512695 C7.73368387 38.33926983 7.71545856 42.17351362 7.6953125 46.0078125 C7.65245903 53.5263249 7.58422067 61.04432512 7.5 68.5625 C8.81355469 68.51609375 10.12710938 68.4696875 11.48046875 68.421875 C13.21612304 68.38434734 14.95180199 68.34794825 16.6875 68.3125 C17.55181641 68.27898437 18.41613281 68.24546875 19.30664062 68.2109375 C23.50731882 68.14655929 25.88134811 68.20135803 29.578125 70.359375 C31.5 72.5625 31.5 72.5625 32.0625 76.0625 C31.4043003 80.15796482 30.75098568 81.08978361 27.5 83.5625 C23.23247209 84.29012766 18.98015615 84.17915232 14.65551758 84.13891602 C12.57145122 84.12505951 10.49188953 84.15911189 8.40820312 84.19726562 C7.08884766 84.19533203 5.76949219 84.19339844 4.41015625 84.19140625 C2.60236694 84.1924939 2.60236694 84.1924939 0.75805664 84.19360352 C-3.50917289 83.36701765 -4.79808797 81.92847028 -7.5 78.5625 C-8.12818909 75.22351074 -8.12818909 75.22351074 -8.13110352 71.37304688 C-8.13825882 70.66833755 -8.14541412 69.96362823 -8.15278625 69.23756409 C-8.16963574 66.91812451 -8.1502958 64.60062827 -8.12890625 62.28125 C-8.12973531 60.66369467 -8.13219609 59.04613942 -8.13621521 57.42858887 C-8.13907061 54.04246591 -8.12439813 50.65700535 -8.09692383 47.27099609 C-8.06284073 42.93633835 -8.06886128 38.60286476 -8.0875864 34.26815033 C-8.09816836 30.92916033 -8.08920787 27.59044462 -8.07420158 24.2514801 C-8.06902804 22.65353714 -8.06949153 21.05556544 -8.07574654 19.45762634 C-8.08121355 17.22177813 -8.06077975 14.98760975 -8.03344727 12.75195312 C-8.02724869 11.48130005 -8.02105011 10.21064697 -8.0146637 8.90148926 C-7.19904197 3.60997134 -5.36102098 0.86159266 0 0 Z " transform="translate(159.5,29.4375)" style="fill: #050203;"/><path d="M0 0 C17.56507345 2.29538084 34.76806499 5.15529075 47.19995117 18.99316406 C52.44416135 25.90494107 56.19995117 34.19165611 56.19995117 42.99316406 C47.61995117 42.99316406 39.03995117 42.99316406 30.19995117 42.99316406 C28.21995117 39.36316406 26.23995117 35.73316406 24.19995117 31.99316406 C16.23269426 21.37015485 5.13050368 14.87217958 -7.88208008 12.52050781 C-9.80004883 11.99316406 -9.80004883 11.99316406 -11.80004883 9.99316406 C-11.32954102 9.60644531 -10.8590332 9.21972656 -10.37426758 8.82128906 C-6.41213234 5.61494091 -6.41213234 5.61494091 -3.42504883 1.55566406 C-1.80004883 -0.00683594 -1.80004883 -0.00683594 0 0 Z " transform="translate(302.800048828125,379.0068359375)" style="fill: #89D5A3;"/><path d="M0 0 C0.85609863 0.16298584 1.71219727 0.32597168 2.59423828 0.49389648 C5.95704412 0.99361666 9.09539294 1.11383146 12.4921875 1.09765625 C13.69101563 1.09443359 14.88984375 1.09121094 16.125 1.08789062 C17.3625 1.07951172 18.6 1.07113281 19.875 1.0625 C21.13570313 1.05798828 22.39640625 1.05347656 23.6953125 1.04882812 C26.79692386 1.0370796 29.89843725 1.02065167 33 1 C33.25322021 1.81911865 33.50644043 2.6382373 33.76733398 3.48217773 C34.11094971 4.55927002 34.45456543 5.6363623 34.80859375 6.74609375 C35.14431396 7.8127124 35.48003418 8.87933105 35.82592773 9.97827148 C37.44531301 14.14610919 39.80877882 16.94493759 43 20 C44 21 45 22 46 23 C40.14392869 28.03387219 34.33185807 30.69028704 27 33 C26.01 33.33 25.02 33.66 24 34 C11.01104674 34.97098793 1.47688196 32.65811646 -9.41796875 25.46484375 C-9.94003906 24.98144531 -10.46210938 24.49804688 -11 24 C-11 23.01 -11 22.02 -11 21 C-9.52116864 19.75120907 -8.03876792 18.50601434 -6.52734375 17.296875 C-1.28325329 12.8440923 -0.9574746 6.43197641 0 0 Z " transform="translate(239,352)" style="fill: #FBAE9C;"/><path d="M0 0 C0.77429855 -0.00686325 1.54859711 -0.0137265 2.34635925 -0.02079773 C4.90825694 -0.03911284 7.46954497 -0.03522156 10.03149414 -0.02954102 C11.81124573 -0.03410072 13.59099555 -0.03940565 15.3707428 -0.04542542 C19.10237781 -0.05436587 22.83379893 -0.05192299 26.56542969 -0.04199219 C31.3485473 -0.03050384 36.13092652 -0.0507069 40.91394711 -0.07990932 C44.58997797 -0.09825261 48.2658313 -0.09798258 51.94189644 -0.0922718 C53.70535887 -0.09211835 55.46883314 -0.09818295 57.23225212 -0.11056328 C59.69827496 -0.1254358 62.16292643 -0.11482478 64.62890625 -0.09765625 C65.35787109 -0.10732422 66.08683594 -0.11699219 66.83789062 -0.12695312 C70.24345705 -0.07728528 72.0765228 0.17658839 74.83229065 2.24790955 C76.37915039 4.40405273 76.37915039 4.40405273 76.87915039 7.40405273 C76.27360594 11.03731941 75.22325889 12.14549599 72.37915039 14.40405273 C69.44313857 15.87205865 66.47450205 15.56860915 63.25488281 15.58105469 C62.52135086 15.58762589 61.78781891 15.59419708 61.03205872 15.60096741 C58.59957786 15.6207109 56.16715877 15.6323654 53.73461914 15.64233398 C52.48901938 15.64844728 52.48901938 15.64844728 51.218256 15.65468407 C46.82291537 15.67554949 42.42760601 15.68984903 38.03222656 15.69921875 C33.49249373 15.7102831 28.95325107 15.74468161 24.41369152 15.78439045 C20.92294911 15.81053779 17.43232381 15.8189089 13.94149208 15.82250023 C12.26814781 15.82737124 10.59480895 15.83899994 8.92156029 15.85753822 C6.57784591 15.88189017 4.23540376 15.88097246 1.89160156 15.87402344 C0.85729507 15.89323853 0.85729507 15.89323853 -0.19790649 15.9128418 C-4.91693899 15.86191685 -7.31943987 14.75375285 -10.62084961 11.40405273 C-11.48002416 8.45911891 -11.01941171 6.54272924 -10.62084961 3.40405273 C-8.16037027 -0.60950699 -4.23371993 -0.02607251 0 0 Z " transform="translate(50.620849609375,191.595947265625)" style="fill: #040604;"/><path d="M0 0 C2.85842744 2.72816235 3.90884333 4.40860185 4.5146637 8.33898926 C4.52396156 10.24496887 4.52396156 10.24496887 4.53344727 12.18945312 C4.54206284 12.89416245 4.55067841 13.59887177 4.55955505 14.32493591 C4.58217598 16.64408561 4.57548467 18.96202321 4.56640625 21.28125 C4.5716433 22.89880735 4.57792008 24.51636164 4.58518982 26.13391113 C4.59558656 29.51992184 4.59104285 32.90551209 4.57641602 36.29150391 C4.5592214 40.62627665 4.58273418 44.95972471 4.61790562 49.29434967 C4.63988633 52.63332874 4.63843677 55.97199107 4.6301403 59.3110199 C4.62932129 60.90898594 4.63617535 62.50697535 4.65091133 64.10487366 C4.66837324 66.34092208 4.65380639 68.57459325 4.63110352 70.81054688 C4.62966087 72.71652649 4.62966087 72.71652649 4.62818909 74.66101074 C3.83304083 78.88743166 2.33953552 80.37339601 -1 83 C-4.0625 83.5625 -4.0625 83.5625 -7 83 C-10.09209673 80.72834498 -10.91790446 79.53359142 -11.50793457 75.6986084 C-11.51111694 74.38718872 -11.51429932 73.07576904 -11.51757812 71.72460938 C-11.5245874 70.99893265 -11.53159668 70.27325592 -11.53881836 69.52558899 C-11.55639717 67.13125127 -11.54477706 64.73809934 -11.53125 62.34375 C-11.53394497 60.67752862 -11.53782744 59.01130877 -11.54284668 57.34509277 C-11.54874153 53.85474662 -11.5401795 50.36481021 -11.52148438 46.87451172 C-11.49869445 42.40188737 -11.51181766 37.9302231 -11.53577423 33.45763397 C-11.55023277 30.01748427 -11.54562605 26.57756197 -11.53526306 23.1374054 C-11.53259591 21.4883869 -11.53586515 19.83934773 -11.54518127 18.19035339 C-11.55534829 15.88481008 -11.53984614 13.58081843 -11.51757812 11.27539062 C-11.51439575 9.96397095 -11.51121338 8.65255127 -11.50793457 7.3013916 C-11 4 -11 4 -9.18640137 1.58044434 C-5.96490823 -0.74821803 -3.86880739 -0.62177262 0 0 Z " transform="translate(218,30)" style="fill: #060303;"/><path d="M0 0 C2.54232342 -0.08152344 5.08199202 -0.14073716 7.625 -0.1875 C8.33785156 -0.21263672 9.05070312 -0.23777344 9.78515625 -0.26367188 C14.61368648 -0.33011954 17.79960393 0.3669159 22 3 C25.92263116 7.24951709 28.25911778 10.84056329 28.22705078 16.67675781 C28.22689972 17.59741028 28.22674866 18.51806274 28.22659302 19.46661377 C28.21627045 20.45216248 28.20594788 21.43771118 28.1953125 22.453125 C28.1924826 23.46848328 28.18965271 24.48384155 28.18673706 25.52996826 C28.17555001 28.77009916 28.15044791 32.00995276 28.125 35.25 C28.1149683 37.44791267 28.10584278 39.64582968 28.09765625 41.84375 C28.07561551 47.22926114 28.04215251 52.61461076 28 58 C26.72247173 57.37927838 25.44698528 56.75435338 24.17236328 56.12768555 C23.46185822 55.78013718 22.75135315 55.43258881 22.01931763 55.07450867 C19.31143485 53.63360434 17.14452301 51.86855302 14.875 49.8125 C14.08867187 49.11769531 13.30234375 48.42289063 12.4921875 47.70703125 C5.90225335 40.54899933 3.3469949 35.89224614 3.66796875 25.953125 C3.73628906 24.77234375 3.80460937 23.5915625 3.875 22.375 C4.55768255 11.50489889 4.55768255 11.50489889 0 2 C0 1.34 0 0.68 0 0 Z " transform="translate(282,177)" style="fill: #D98557;"/><path d="M0 0 C7.29557477 -0.19798032 14.5895819 -0.34303847 21.88720703 -0.43945312 C24.36860392 -0.47964819 26.84981176 -0.53421532 29.33056641 -0.60351562 C32.90053931 -0.70073555 36.46800602 -0.74596791 40.0390625 -0.78125 C41.69876572 -0.84318542 41.69876572 -0.84318542 43.39199829 -0.90637207 C50.92255233 -0.91074475 50.92255233 -0.91074475 54.00360107 1.69360352 C55.57403436 3.73572924 56.82243741 5.71143889 58 8 C58.56855209 9.02716125 58.56855209 9.02716125 59.14859009 10.07507324 C60 12 60 12 60 15 C40.2 15 20.4 15 0 15 C0 10.05 0 5.1 0 0 Z " transform="translate(391,61)" style="fill: #3D6B8D;"/><path d="M0 0 C5.445 0.99 5.445 0.99 11 2 C11.03738281 3.14597656 11.07476562 4.29195313 11.11328125 5.47265625 C11.17898584 7.00263446 11.24543159 8.53258097 11.3125 10.0625 C11.33505859 10.81466797 11.35761719 11.56683594 11.38085938 12.34179688 C11.67495648 18.51783613 12.94492295 23.28436246 16.75 28.3125 C19.6591952 30.4943964 22.48445627 31.18872068 26 32 C23.13275467 34.86724533 21.06585824 34.33435677 17.0625 34.375 C6.72666894 34.32803019 -3.26976539 31.15762464 -11 24 C-11 23.01 -11 22.02 -11 21 C-9.52116864 19.75120907 -8.03876792 18.50601434 -6.52734375 17.296875 C-1.24141239 12.808565 -1.01563598 6.48444508 0 0 Z " transform="translate(239,352)" style="fill: #F7C8B9;"/><path d="M0 0 C0.61875 0.33257812 1.2375 0.66515625 1.875 1.0078125 C4.40317111 2.18824533 6.22060026 2.26694756 9 2.25 C10.2684375 2.25773437 10.2684375 2.25773437 11.5625 2.265625 C14.15623954 1.9829739 15.70073329 1.17079225 18 0 C21.37956177 0.17787167 23.98706534 0.41184439 26.9375 2.125 C28.72258556 5.275151 28.54856752 7.46478709 28 11 C23.46839138 15.97371677 18.9654394 17.6898539 12.203125 18.21875 C4.4857309 18.45379754 -2.09628809 17.6659496 -8.5625 13.25 C-10.65016678 9.98234764 -10.54211081 7.79477569 -10 4 C-7.22919201 -0.15621199 -4.84032264 -0.60504033 0 0 Z " transform="translate(247,309)" style="fill: #040403;"/><path d="M0 0 C7.59 0 15.18 0 23 0 C23 6.27 23 12.54 23 19 C15.41 19 7.82 19 0 19 C0 12.73 0 6.46 0 0 Z " transform="translate(331,79)" style="fill: #F28895;"/><path d="M0 0 C7.59 0 15.18 0 23 0 C23 5.94 23 11.88 23 18 C15.41 18 7.82 18 0 18 C0 12.06 0 6.12 0 0 Z " transform="translate(331,46)" style="fill: #F48996;"/><path d="M0 0 C3.72763166 0.93190792 5.1201811 2.63657168 7.5 5.625 C8.21804212 8.48193727 8.20097586 11.19233163 8.125 14.125 C8.14433594 14.87136719 8.16367188 15.61773437 8.18359375 16.38671875 C8.14649365 20.57903 7.82558915 22.21002281 5.15234375 25.6171875 C2.5 27.625 2.5 27.625 -0.5625 28.25 C-3.5 27.625 -3.5 27.625 -5.6484375 25.6171875 C-8.09824054 21.65822309 -8.12949095 18.68826576 -8.0625 14.125 C-8.08634766 13.37863281 -8.11019531 12.63226563 -8.13476562 11.86328125 C-8.1235513 7.63921824 -7.84221981 6.05544396 -5.12109375 2.6328125 C-2.5 0.625 -2.5 0.625 0 0 Z " transform="translate(226.5,255.375)" style="fill: #060404;"/><path d="M0 0 C2.85203273 2.49552864 3.01388341 4.12595131 3.43359375 7.93359375 C3.45078816 9.43479793 3.45160214 10.93626359 3.4375 12.4375 C3.45748047 13.18837891 3.47746094 13.93925781 3.49804688 14.71289062 C3.49463048 18.59732747 3.24370297 20.59628471 1.19140625 23.99609375 C-1 26 -1 26 -4.5 26.625 C-8 26 -8 26 -10.1875 23.99609375 C-12.59596386 20.01486146 -12.59397584 16.99924402 -12.5 12.4375 C-12.51546875 11.68275391 -12.5309375 10.92800781 -12.546875 10.15039062 C-12.52192702 6.61089595 -12.29753946 4.41786311 -10.22265625 1.50390625 C-6.53947477 -0.98822884 -4.38249869 -0.55650777 0 0 Z " transform="translate(290,257)" style="fill: #040303;"/><path d="M0 0 C5 1 5 1 7 4 C6.8125 7.5625 6.8125 7.5625 6 11 C3 13 3 13 0 13 C0 8.71 0 4.42 0 0 Z " transform="translate(325,254)" style="fill: #F2C4B5;"/><path d="M0 0 C0 4.29 0 8.58 0 13 C-5 12 -5 12 -7 9 C-6.36842105 0 -6.36842105 0 0 0 Z " transform="translate(187,254)" style="fill: #F3A796;"/></svg>